<svg xmlns="http://www.w3.org/2000/svg" xmlns:xlink="http://www.w3.org/1999/xlink" width="1040" height="819.85"><rect width="1040" height="819.85" rx="5" ry="5" class="a"/><svg y="0%" x="0%"><circle cx="20" cy="20" r="6" fill="#ff5f58"/><circle cx="40" cy="20" r="6" fill="#ffbd2e"/><circle cx="60" cy="20" r="6" fill="#18c132"/></svg><svg height="759.85" viewBox="0 0 100 75.985" width="1000" x="15" xmlns="http://www.w3.org/2000/svg" xmlns:xlink="http://www.w3.org/1999/xlink" y="50"><style>.a{fill:#282d35}.f{fill:#b9c0cb;white-space:pre}</style><g font-family="Monaco,Consolas,Menlo,'Bitstream Vera Sans Mono','Powerline Symbols',monospace" font-size="1.67"><defs><symbol id="1"><text y="1.67" class="f">╔═══════════════════════════════════════════════╗</text></symbol><symbol id="2"><text y="1.67" class="f">║</text><text x="4.008" y="1.67" class="f">ERC-8004</text><text x="13.026" y="1.67" class="f">Workshop</text><text x="22.044" y="1.67" class="f">—</text><text x="24.048" y="1.67" class="f">Live</text><text x="29.058" y="1.67" class="f">Demo</text><text x="48.096" y="1.67" class="f">║</text></symbol><symbol id="3"><text y="1.67" class="f">║</text><text x="4.008" y="1.67" class="f">stack.perkos.xyz</text><text x="21.042" y="1.67" class="f">|</text><text x="23.046" y="1.67" class="f">Base</text><text x="28.056" y="1.67" class="f">Mainnet</text><text x="49.098" y="1.67" class="f">║</text></symbol><symbol id="4"><text y="1.67" class="f">╚═══════════════════════════════════════════════╝</text></symbol><symbol id="5"><text y="1.67" class="f">$</text><text x="2.004" y="1.67" class="f">npx</text><text x="6.012" y="1.67" class="f">tsx</text><text x="10.02" y="1.67" class="f">src/01-discover.ts</text></symbol><symbol id="6"><text y="1.67" class="f">Stack</text><text x="6.012" y="1.67" class="f">Discovery</text></symbol><symbol id="7"><text y="1.67" class="f">Target:</text><text x="8.016" y="1.67" class="f">https://stack.perkos.xyz</text></symbol><symbol id="8"><text y="1.67" class="f">---</text><text x="4.008" y="1.67" class="f">Health</text><text x="11.022" y="1.67" class="f">Check</text><text x="17.034" y="1.67" class="f">---</text></symbol><symbol id="9"><text y="1.67" class="f">{</text></symbol><symbol id="10"><text x="2.004" y="1.67" class="f">&quot;status&quot;:</text><text x="12.024" y="1.67" class="f">&quot;healthy&quot;,</text></symbol><symbol id="11"><text x="2.004" y="1.67" class="f">&quot;service&quot;:</text><text x="13.026" y="1.67" class="f">&quot;perkos-stack&quot;,</text></symbol><symbol id="12"><text x="2.004" y="1.67" class="f">&quot;timestamp&quot;:</text><text x="15.03" y="1.67" class="f">&quot;2026-03-09T14:42:04.393Z&quot;,</text></symbol><symbol id="13"><text x="2.004" y="1.67" class="f">&quot;version&quot;:</text><text x="13.026" y="1.67" class="f">&quot;2.0.0&quot;</text></symbol><symbol id="14"><text y="1.67" class="f">}</text></symbol><symbol id="15"><text y="1.67" class="f">---</text><text x="4.008" y="1.67" class="f">Agent</text><text x="10.02" y="1.67" class="f">Card</text><text x="15.03" y="1.67" class="f">---</text></symbol><symbol id="16"><text y="1.67" class="f">...</text><text x="4.008" y="1.67" class="f">(agent</text><text x="11.022" y="1.67" class="f">card,</text><text x="17.034" y="1.67" class="f">erc-8004,</text><text x="27.054" y="1.67" class="f">x402,</text><text x="33.066" y="1.67" class="f">llms.txt)</text></symbol><symbol id="17"><text y="1.67" class="f">=========================================</text></symbol><symbol id="18"><text x="2.004" y="1.67" class="f">Exercise</text><text x="11.022" y="1.67" class="f">2:</text><text x="14.028" y="1.67" class="f">Identity</text><text x="23.046" y="1.67" class="f">Lookup</text></symbol><symbol id="19"><text y="1.67" class="f">$</text><text x="2.004" y="1.67" class="f">npx</text><text x="6.012" y="1.67" class="f">tsx</text><text x="10.02" y="1.67" class="f">src/02-identity.ts</text></symbol><symbol id="20"><text y="1.67" class="f">Identity</text><text x="9.018" y="1.67" class="f">Lookup</text></symbol><symbol id="21"><text y="1.67" class="f">Address:</text><text x="9.018" y="1.67" class="f">0x3f0D7b9916212fA0A9Ac0EF8f72a25EB56F7046C</text></symbol><symbol id="22"><text y="1.67" class="f">Network:</text><text x="9.018" y="1.67" class="f">base</text></symbol><symbol id="23"><text y="1.67" class="f">---</text><text x="4.008" y="1.67" class="f">Identity</text><text x="13.026" y="1.67" class="f">Response</text><text x="22.044" y="1.67" class="f">---</text></symbol><symbol id="24"><text x="2.004" y="1.67" class="f">&quot;network&quot;:</text><text x="13.026" y="1.67" class="f">&quot;base&quot;,</text></symbol><symbol id="25"><text x="2.004" y="1.67" class="f">&quot;registryAddress&quot;:</text><text x="21.042" y="1.67" class="f">&quot;0x8004A169FB4a3325136EB29fA0ceB6D2e539a432&quot;,</text></symbol><symbol id="26"><text x="2.004" y="1.67" class="f">&quot;name&quot;:</text><text x="10.02" y="1.67" class="f">&quot;AgentIdentity&quot;,</text></symbol><symbol id="27"><text x="2.004" y="1.67" class="f">&quot;symbol&quot;:</text><text x="12.024" y="1.67" class="f">&quot;AGENT&quot;,</text></symbol><symbol id="28"><text x="2.004" y="1.67" class="f">&quot;version&quot;:</text><text x="13.026" y="1.67" class="f">&quot;2.0.0&quot;,</text></symbol><symbol id="29"><text x="2.004" y="1.67" class="f">&quot;spec&quot;:</text><text x="10.02" y="1.67" class="f">&quot;ERC-8004&quot;</text></symbol><symbol id="30"><text y="1.67" class="f">Done.</text></symbol><symbol id="31"><text x="2.004" y="1.67" class="f">Exercise</text><text x="11.022" y="1.67" class="f">3:</text><text x="14.028" y="1.67" class="f">Reputation</text><text x="25.05" y="1.67" class="f">Query</text></symbol><symbol id="32"><text y="1.67" class="f">$</text><text x="2.004" y="1.67" class="f">npx</text><text x="6.012" y="1.67" class="f">tsx</text><text x="10.02" y="1.67" class="f">src/03-reputation.ts</text><text x="31.062" y="1.67" class="f">1</text><text x="33.066" y="1.67" class="f">base</text></symbol><symbol id="33"><text y="1.67" class="f">Reputation</text><text x="11.022" y="1.67" class="f">Query</text></symbol><symbol id="34"><text y="1.67" class="f">Agent</text><text x="6.012" y="1.67" class="f">ID:</text><text x="10.02" y="1.67" class="f">1</text></symbol><symbol id="35"><text x="2.004" y="1.67" class="f">},</text></symbol><symbol id="36"><text x="4.008" y="1.67" class="f">{</text></symbol><symbol id="37"><text x="4.008" y="1.67" class="f">},</text></symbol><symbol id="38"><text y="1.67" class="f">---</text><text x="4.008" y="1.67" class="f">Request</text><text x="12.024" y="1.67" class="f">Body</text><text x="17.034" y="1.67" class="f">---</text></symbol><symbol id="39"><text x="2.004" y="1.67" class="f">&quot;name&quot;:</text><text x="10.02" y="1.67" class="f">&quot;workshop-agent&quot;,</text></symbol><symbol id="40"><text x="2.004" y="1.67" class="f">&quot;description&quot;:</text><text x="17.034" y="1.67" class="f">&quot;Test</text><text x="23.046" y="1.67" class="f">agent</text><text x="29.058" y="1.67" class="f">created</text><text x="37.074" y="1.67" class="f">during</text><text x="44.088" y="1.67" class="f">ERC-8004</text><text x="53.106" y="1.67" class="f">workshop&quot;</text></symbol><symbol id="41"><text y="1.67" class="f">---</text><text x="4.008" y="1.67" class="f">Response</text><text x="13.026" y="1.67" class="f">(200)</text><text x="19.038" y="1.67" class="f">---</text></symbol><symbol id="42"><text x="2.004" y="1.67" class="f">&quot;success&quot;:</text><text x="13.026" y="1.67" class="f">true,</text></symbol><symbol id="43"><text x="2.004" y="1.67" class="f">&quot;alreadyRegistered&quot;:</text><text x="23.046" y="1.67" class="f">false,</text></symbol><symbol id="44"><text x="2.004" y="1.67" class="f">&quot;registration&quot;:</text><text x="18.036" y="1.67" class="f">{</text></symbol><symbol id="45"><text x="4.008" y="1.67" class="f">&quot;to&quot;:</text><text x="10.02" y="1.67" class="f">&quot;0x8004A169FB4a3325136EB29fA0ceB6D2e539a432&quot;,</text></symbol><symbol id="46"><text x="4.008" y="1.67" class="f">&quot;network&quot;:</text><text x="15.03" y="1.67" class="f">&quot;base&quot;,</text></symbol><symbol id="47"><text x="4.008" y="1.67" class="f">&quot;function&quot;:</text><text x="16.032" y="1.67" class="f">&quot;register()&quot;,</text></symbol><symbol id="48"><text x="4.008" y="1.67" class="f">&quot;args&quot;:</text><text x="12.024" y="1.67" class="f">[],</text></symbol><symbol id="49"><text x="4.008" y="1.67" class="f">&quot;description&quot;:</text><text x="19.038" y="1.67" class="f">&quot;Register</text><text x="29.058" y="1.67" class="f">as</text><text x="32.064" y="1.67" class="f">an</text><text x="35.07" y="1.67" class="f">agent</text><text x="41.082" y="1.67" class="f">in</text><text x="44.088" y="1.67" class="f">the</text><text x="48.096" y="1.67" class="f">ERC-8004</text><text x="57.114" y="1.67" class="f">Identity</text><text x="66.132" y="1.67" class="f">Registry&quot;</text></symbol><symbol id="50"><text x="2.004" y="1.67" class="f">&quot;x402&quot;:</text><text x="10.02" y="1.67" class="f">{</text></symbol><symbol id="51"><text x="4.008" y="1.67" class="f">&quot;facilitator&quot;:</text><text x="19.038" y="1.67" class="f">&quot;https://stack.perkos.xyz&quot;,</text></symbol><symbol id="52"><text x="4.008" y="1.67" class="f">&quot;payTo&quot;:</text><text x="13.026" y="1.67" class="f">&quot;0x3f0D7b9916212fA0A9Ac0EF8f72a25EB56F7046C&quot;,</text></symbol><symbol id="53"><text x="4.008" y="1.67" class="f">&quot;asset&quot;:</text><text x="13.026" y="1.67" class="f">&quot;0x833589fCD6eDb6E08f4c7C32D4f71b54bdA02913&quot;,</text></symbol><symbol id="54"><text x="4.008" y="1.67" class="f">&quot;endpoints&quot;:</text><text x="17.034" y="1.67" class="f">{</text></symbol><symbol id="55"><text x="6.012" y="1.67" class="f">&quot;verify&quot;:</text><text x="16.032" y="1.67" class="f">&quot;https://stack.perkos.xyz/api/v2/x402/verify&quot;,</text></symbol><symbol id="56"><text x="6.012" y="1.67" class="f">&quot;settle&quot;:</text><text x="16.032" y="1.67" class="f">&quot;https://stack.perkos.xyz/api/v2/x402/settle&quot;,</text></symbol><symbol id="57"><text x="6.012" y="1.67" class="f">&quot;config&quot;:</text><text x="16.032" y="1.67" class="f">&quot;https://stack.perkos.xyz/api/v2/x402/config&quot;,</text></symbol><symbol id="58"><text x="2.004" y="1.67" class="f">...</text></symbol><symbol id="59"><text x="2.004" y="1.67" class="f">Exercise</text><text x="11.022" y="1.67" class="f">5:</text><text x="14.028" y="1.67" class="f">x402</text><text x="19.038" y="1.67" class="f">Payment</text><text x="27.054" y="1.67" class="f">Flow</text></symbol><symbol id="60"><text y="1.67" class="f">$</text><text x="2.004" y="1.67" class="f">npx</text><text x="6.012" y="1.67" class="f">tsx</text><text x="10.02" y="1.67" class="f">src/05-x402-flow.ts</text></symbol><symbol id="61"><text y="1.67" class="f">x402</text><text x="5.01" y="1.67" class="f">Payment</text><text x="13.026" y="1.67" class="f">Flow</text></symbol><symbol id="62"><text x="6.012" y="1.67" class="f">&quot;scheme&quot;:</text><text x="16.032" y="1.67" class="f">&quot;exact&quot;,</text></symbol><symbol id="63"><text x="6.012" y="1.67" class="f">&quot;network&quot;:</text><text x="17.034" y="1.67" class="f">&quot;avalanche-fuji&quot;</text></symbol><symbol id="64"><text x="6.012" y="1.67" class="f">&quot;network&quot;:</text><text x="17.034" y="1.67" class="f">&quot;celo&quot;</text></symbol><symbol id="65"><text x="6.012" y="1.67" class="f">&quot;network&quot;:</text><text x="17.034" y="1.67" class="f">&quot;celo-sepolia&quot;</text></symbol><symbol id="66"><text x="6.012" y="1.67" class="f">&quot;network&quot;:</text><text x="17.034" y="1.67" class="f">&quot;base&quot;</text></symbol><symbol id="67"><text x="2.004" y="1.67" class="f">...</text><text x="6.012" y="1.67" class="f">(38</text><text x="10.02" y="1.67" class="f">network/scheme</text><text x="25.05" y="1.67" class="f">pairs)</text></symbol><symbol id="68"><text x="2.004" y="1.67" class="f">Exercise</text><text x="11.022" y="1.67" class="f">6:</text><text x="14.028" y="1.67" class="f">Full</text><text x="19.038" y="1.67" class="f">End-to-End</text></symbol><symbol id="69"><text y="1.67" class="f">$</text><text x="2.004" y="1.67" class="f">npx</text><text x="6.012" y="1.67" class="f">tsx</text><text x="10.02" y="1.67" class="f">src/06-full-flow.ts</text></symbol><symbol id="70"><text x="4.008" y="1.67" class="f">&quot;identityRegistry&quot;:</text><text x="24.048" y="1.67" class="f">&quot;0x8004A169FB4a3325136EB29fA0ceB6D2e539a432&quot;,</text></symbol><symbol id="71"><text x="4.008" y="1.67" class="f">&quot;reputationRegistry&quot;:</text><text x="26.052" y="1.67" class="f">&quot;0x8004BAa17C55a88189AE136b182e5fdA19dE9b63&quot;,</text></symbol><symbol id="72"><text x="4.008" y="1.67" class="f">&quot;network&quot;:</text><text x="15.03" y="1.67" class="f">&quot;base&quot;</text></symbol><symbol id="73"><text x="2.004" y="1.67" class="f">&quot;message&quot;:</text><text x="13.026" y="1.67" class="f">&quot;Sign</text><text x="19.038" y="1.67" class="f">the</text><text x="23.046" y="1.67" class="f">registration</text><text x="36.072" y="1.67" class="f">transaction,</text><text x="49.098" y="1.67" class="f">then</text><text x="54.108" y="1.67" class="f">use</text><text x="58.116" y="1.67" class="f">x402</text><text x="63.126" y="1.67" class="f">config</text><text x="70.14" y="1.67" class="f">for</text><text x="74.148" y="1.67" class="f">payments.&quot;</text></symbol><symbol id="74"><text y="1.67" class="f">Full</text><text x="5.01" y="1.67" class="f">flow</text><text x="10.02" y="1.67" class="f">complete.</text></symbol><symbol id="a"><path fill="transparent" d="M0 0h100v36H0z"/></symbol><symbol id="b"><path fill="#6f7683" d="M0 0h1.102v2.171H0z"/></symbol></defs><path class="a" d="M0 0h100v75.985H0z"/><svg width="1400"><svg><use xlink:href="#a"/><use xlink:href="#b" x="-.004"/></svg><svg x="100"><use xlink:href="#a"/><use xlink:href="#b" x="-.004" y="13.001"/><use xlink:href="#1" y="2.171"/><use xlink:href="#2" y="4.342"/><use xlink:href="#3" y="6.513"/><use xlink:href="#4" y="8.684"/></svg><svg x="200"><use xlink:href="#a"/><use xlink:href="#b" x="-.004" y="60.763"/><use xlink:href="#1" y="2.171"/><use xlink:href="#2" y="4.342"/><use xlink:href="#3" y="6.513"/><use xlink:href="#4" y="8.684"/><use xlink:href="#5" y="13.026"/><use xlink:href="#6" y="15.197"/><use xlink:href="#7" y="17.368"/><use xlink:href="#8" y="21.71"/><use xlink:href="#9" y="23.881"/><use xlink:href="#10" y="26.052"/><use xlink:href="#11" y="28.223"/><use xlink:href="#12" y="30.394"/><use xlink:href="#13" y="32.565"/><use xlink:href="#14" y="34.736"/><use xlink:href="#15" y="39.078"/><use xlink:href="#16" y="41.249"/><use xlink:href="#17" y="45.591"/><use xlink:href="#18" y="47.762"/><use xlink:href="#17" y="49.933"/><use xlink:href="#19" y="52.104"/><use xlink:href="#20" y="54.275"/><use xlink:href="#21" y="56.446"/><use xlink:href="#22" y="58.617"/></svg><svg x="300"><use xlink:href="#a"/><use xlink:href="#b" x="-.004" y="62.934"/><use xlink:href="#1" y="2.171"/><use xlink:href="#2" y="4.342"/><use xlink:href="#3" y="6.513"/><use xlink:href="#4" y="8.684"/><use xlink:href="#5" y="13.026"/><use xlink:href="#6" y="15.197"/><use xlink:href="#7" y="17.368"/><use xlink:href="#8" y="21.71"/><use xlink:href="#9" y="23.881"/><use xlink:href="#10" y="26.052"/><use xlink:href="#11" y="28.223"/><use xlink:href="#12" y="30.394"/><use xlink:href="#13" y="32.565"/><use xlink:href="#14" y="34.736"/><use xlink:href="#15" y="39.078"/><use xlink:href="#16" y="41.249"/><use xlink:href="#17" y="45.591"/><use xlink:href="#18" y="47.762"/><use xlink:href="#17" y="49.933"/><use xlink:href="#19" y="52.104"/><use xlink:href="#20" y="54.275"/><use xlink:href="#21" y="56.446"/><use xlink:href="#22" y="58.617"/></svg><svg x="400"><use xlink:href="#a"/><use xlink:href="#b" x="-.004" y="75.96"/><use xlink:href="#3"/><use xlink:href="#4" y="2.171"/><use xlink:href="#5" y="6.513"/><use xlink:href="#6" y="8.684"/><use xlink:href="#7" y="10.855"/><use xlink:href="#8" y="15.197"/><use xlink:href="#9" y="17.368"/><use xlink:href="#10" y="19.539"/><use xlink:href="#11" y="21.71"/><use xlink:href="#12" y="23.881"/><use xlink:href="#13" y="26.052"/><use xlink:href="#14" y="28.223"/><use xlink:href="#15" y="32.565"/><use xlink:href="#16" y="34.736"/><use xlink:href="#17" y="39.078"/><use xlink:href="#18" y="41.249"/><use xlink:href="#17" y="43.42"/><use xlink:href="#19" y="45.591"/><use xlink:href="#20" y="47.762"/><use xlink:href="#21" y="49.933"/><use xlink:href="#22" y="52.104"/><use xlink:href="#23" y="56.446"/><use xlink:href="#9" y="58.617"/><use xlink:href="#24" y="60.788"/><use xlink:href="#25" y="62.959"/><use xlink:href="#26" y="65.13"/><use xlink:href="#27" y="67.301"/><use xlink:href="#28" y="69.472"/><use xlink:href="#29" y="71.643"/><use xlink:href="#14" y="73.814"/></svg><svg x="500"><use xlink:href="#a"/><use xlink:href="#b" x="-.004" y="75.96"/><use xlink:href="#5" y="2.171"/><use xlink:href="#6" y="4.342"/><use xlink:href="#7" y="6.513"/><use xlink:href="#8" y="10.855"/><use xlink:href="#9" y="13.026"/><use xlink:href="#10" y="15.197"/><use xlink:href="#11" y="17.368"/><use xlink:href="#12" y="19.539"/><use xlink:href="#13" y="21.71"/><use xlink:href="#14" y="23.881"/><use xlink:href="#15" y="28.223"/><use xlink:href="#16" y="30.394"/><use xlink:href="#17" y="34.736"/><use xlink:href="#18" y="36.907"/><use xlink:href="#17" y="39.078"/><use xlink:href="#19" y="41.249"/><use xlink:href="#20" y="43.42"/><use xlink:href="#21" y="45.591"/><use xlink:href="#22" y="47.762"/><use xlink:href="#23" y="52.104"/><use xlink:href="#9" y="54.275"/><use xlink:href="#24" y="56.446"/><use xlink:href="#25" y="58.617"/><use xlink:href="#26" y="60.788"/><use xlink:href="#27" y="62.959"/><use xlink:href="#28" y="65.13"/><use xlink:href="#29" y="67.301"/><use xlink:href="#14" y="69.472"/><use xlink:href="#30" y="73.814"/></svg><svg x="600"><use xlink:href="#a"/><use xlink:href="#b" x="-.004" y="75.96"/><use xlink:href="#10"/><use xlink:href="#11" y="2.171"/><use xlink:href="#12" y="4.342"/><use xlink:href="#13" y="6.513"/><use xlink:href="#14" y="8.684"/><use xlink:href="#15" y="13.026"/><use xlink:href="#16" y="15.197"/><use xlink:href="#17" y="19.539"/><use xlink:href="#18" y="21.71"/><use xlink:href="#17" y="23.881"/><use xlink:href="#19" y="26.052"/><use xlink:href="#20" y="28.223"/><use xlink:href="#21" y="30.394"/><use xlink:href="#22" y="32.565"/><use xlink:href="#23" y="36.907"/><use xlink:href="#9" y="39.078"/><use xlink:href="#24" y="41.249"/><use xlink:href="#25" y="43.42"/><use xlink:href="#26" y="45.591"/><use xlink:href="#27" y="47.762"/><use xlink:href="#28" y="49.933"/><use xlink:href="#29" y="52.104"/><use xlink:href="#14" y="54.275"/><use xlink:href="#30" y="58.617"/><use xlink:href="#17" y="60.788"/><use xlink:href="#31" y="62.959"/><use xlink:href="#17" y="65.13"/><use xlink:href="#32" y="67.301"/><use xlink:href="#33" y="69.472"/><use xlink:href="#34" y="71.643"/><use xlink:href="#22" y="73.814"/></svg><svg x="700"><use xlink:href="#a"/><use xlink:href="#b" x="-.004" y="75.96"/><use xlink:href="#11"/><use xlink:href="#12" y="2.171"/><use xlink:href="#13" y="4.342"/><use xlink:href="#14" y="6.513"/><use xlink:href="#15" y="10.855"/><use xlink:href="#16" y="13.026"/><use xlink:href="#17" y="17.368"/><use xlink:href="#18" y="19.539"/><use xlink:href="#17" y="21.71"/><use xlink:href="#19" y="23.881"/><use xlink:href="#20" y="26.052"/><use xlink:href="#21" y="28.223"/><use xlink:href="#22" y="30.394"/><use xlink:href="#23" y="34.736"/><use xlink:href="#9" y="36.907"/><use xlink:href="#24" y="39.078"/><use xlink:href="#25" y="41.249"/><use xlink:href="#26" y="43.42"/><use xlink:href="#27" y="45.591"/><use xlink:href="#28" y="47.762"/><use xlink:href="#29" y="49.933"/><use xlink:href="#14" y="52.104"/><use xlink:href="#30" y="56.446"/><use xlink:href="#17" y="58.617"/><use xlink:href="#31" y="60.788"/><use xlink:href="#17" y="62.959"/><use xlink:href="#32" y="65.13"/><use xlink:href="#33" y="67.301"/><use xlink:href="#34" y="69.472"/><use xlink:href="#22" y="71.643"/></svg><svg x="800"><use xlink:href="#a"/><use xlink:href="#b" x="-.004" y="75.96"/><use xlink:href="#17"/><use xlink:href="#31" y="2.171"/><use xlink:href="#17" y="4.342"/><use xlink:href="#32" y="6.513"/><use xlink:href="#33" y="8.684"/><use xlink:href="#34" y="10.855"/><use xlink:href="#22" y="13.026"/><text y="19.038" class="f">---</text><text x="4.008" y="19.038" class="f">Reputation</text><text x="15.03" y="19.038" class="f">Response</text><text x="24.048" y="19.038" class="f">---</text><use xlink:href="#9" y="19.539"/><text x="2.004" y="23.38" class="f">&quot;agentId&quot;:</text><text x="13.026" y="23.38" class="f">&quot;1&quot;,</text><text x="2.004" y="25.551" class="f">&quot;summary&quot;:</text><text x="13.026" y="25.551" class="f">{</text><text x="4.008" y="27.722" class="f">&quot;count&quot;:</text><text x="13.026" y="27.722" class="f">&quot;11&quot;,</text><text x="4.008" y="29.893" class="f">&quot;summaryValue&quot;:</text><text x="20.04" y="29.893" class="f">&quot;86&quot;,</text><text x="4.008" y="32.064" class="f">&quot;summaryValueDecimals&quot;:</text><text x="28.056" y="32.064" class="f">0,</text><text x="4.008" y="34.235" class="f">&quot;formattedSummary&quot;:</text><text x="24.048" y="34.235" class="f">&quot;86&quot;</text><use xlink:href="#35" y="34.736"/><text x="2.004" y="38.577" class="f">&quot;feedback&quot;:</text><text x="14.028" y="38.577" class="f">[</text><use xlink:href="#36" y="39.078"/><text x="6.012" y="42.919" class="f">&quot;client&quot;:</text><text x="16.032" y="42.919" class="f">&quot;0x397558E5D63a894934362E5c3C33Ab5d0170c228&quot;,</text><text x="6.012" y="45.09" class="f">&quot;feedbackIndex&quot;:</text><text x="23.046" y="45.09" class="f">&quot;1&quot;,</text><text x="6.012" y="47.261" class="f">&quot;value&quot;:</text><text x="15.03" y="47.261" class="f">&quot;100&quot;,</text><text x="6.012" y="49.432" class="f">&quot;valueDecimals&quot;:</text><text x="23.046" y="49.432" class="f">0,</text><text x="6.012" y="51.603" class="f">&quot;formattedValue&quot;:</text><text x="24.048" y="51.603" class="f">&quot;100&quot;,</text><text x="6.012" y="53.774" class="f">&quot;tag1&quot;:</text><text x="14.028" y="53.774" class="f">&quot;get</text><text x="19.038" y="53.774" class="f">top</text><text x="23.046" y="53.774" class="f">1</text><text x="25.05" y="53.774" class="f">rank</text><text x="30.06" y="53.774" class="f">&gt;&quot;,</text><text x="6.012" y="55.945" class="f">&quot;tag2&quot;:</text><text x="14.028" y="55.945" class="f">&quot;t.me/agent_bldr&quot;,</text><text x="6.012" y="58.116" class="f">&quot;isRevoked&quot;:</text><text x="19.038" y="58.116" class="f">false</text><use xlink:href="#37" y="58.617"/><use xlink:href="#36" y="60.788"/><text x="2.004" y="64.629" class="f">...</text><text x="6.012" y="64.629" class="f">(11</text><text x="10.02" y="64.629" class="f">feedback</text><text x="19.038" y="64.629" class="f">entries,</text><text x="28.056" y="64.629" class="f">5</text><text x="30.06" y="64.629" class="f">clients,</text><text x="39.078" y="64.629" class="f">score:</text><text x="46.092" y="64.629" class="f">86)</text><use xlink:href="#17" y="67.301"/><text x="2.004" y="71.142" class="f">Exercise</text><text x="11.022" y="71.142" class="f">4:</text><text x="14.028" y="71.142" class="f">Agent</text><text x="20.04" y="71.142" class="f">Onboarding</text><use xlink:href="#17" y="71.643"/><text y="75.484" class="f">$</text><text x="2.004" y="75.484" class="f">npx</text><text x="6.012" y="75.484" class="f">tsx</text><text x="10.02" y="75.484" class="f">src/04-onboard.ts</text></svg><svg x="900"><use xlink:href="#a"/><use xlink:href="#b" x="-.004" y="75.96"/><use xlink:href="#22"/><use xlink:href="#38" y="4.342"/><use xlink:href="#9" y="6.513"/><use xlink:href="#24" y="8.684"/><use xlink:href="#39" y="10.855"/><use xlink:href="#40" y="13.026"/><use xlink:href="#14" y="15.197"/><use xlink:href="#41" y="19.539"/><use xlink:href="#9" y="21.71"/><use xlink:href="#42" y="23.881"/><use xlink:href="#43" y="26.052"/><use xlink:href="#44" y="28.223"/><use xlink:href="#45" y="30.394"/><use xlink:href="#46" y="32.565"/><use xlink:href="#47" y="34.736"/><use xlink:href="#48" y="36.907"/><use xlink:href="#49" y="39.078"/><use xlink:href="#35" y="41.249"/><use xlink:href="#50" y="43.42"/><use xlink:href="#51" y="45.591"/><use xlink:href="#52" y="47.762"/><use xlink:href="#46" y="49.933"/><use xlink:href="#53" y="52.104"/><use xlink:href="#54" y="54.275"/><use xlink:href="#55" y="56.446"/><use xlink:href="#56" y="58.617"/><use xlink:href="#57" y="60.788"/><use xlink:href="#58" y="62.959"/><use xlink:href="#17" y="67.301"/><use xlink:href="#59" y="69.472"/><use xlink:href="#17" y="71.643"/><use xlink:href="#60" y="73.814"/></svg><svg x="1000"><use xlink:href="#a"/><use xlink:href="#b" x="-.004" y="75.96"/><use xlink:href="#38"/><use xlink:href="#9" y="2.171"/><use xlink:href="#24" y="4.342"/><use xlink:href="#39" y="6.513"/><use xlink:href="#40" y="8.684"/><use xlink:href="#14" y="10.855"/><use xlink:href="#41" y="15.197"/><use xlink:href="#9" y="17.368"/><use xlink:href="#42" y="19.539"/><use xlink:href="#43" y="21.71"/><use xlink:href="#44" y="23.881"/><use xlink:href="#45" y="26.052"/><use xlink:href="#46" y="28.223"/><use xlink:href="#47" y="30.394"/><use xlink:href="#48" y="32.565"/><use xlink:href="#49" y="34.736"/><use xlink:href="#35" y="36.907"/><use xlink:href="#50" y="39.078"/><use xlink:href="#51" y="41.249"/><use xlink:href="#52" y="43.42"/><use xlink:href="#46" y="45.591"/><use xlink:href="#53" y="47.762"/><use xlink:href="#54" y="49.933"/><use xlink:href="#55" y="52.104"/><use xlink:href="#56" y="54.275"/><use xlink:href="#57" y="56.446"/><use xlink:href="#58" y="58.617"/><use xlink:href="#17" y="62.959"/><use xlink:href="#59" y="65.13"/><use xlink:href="#17" y="67.301"/><use xlink:href="#60" y="69.472"/><use xlink:href="#61" y="71.643"/></svg><svg x="1100"><use xlink:href="#a"/><use xlink:href="#b" x="-.004" y="75.96"/><use xlink:href="#9"/><use xlink:href="#24" y="2.171"/><use xlink:href="#39" y="4.342"/><use xlink:href="#40" y="6.513"/><use xlink:href="#14" y="8.684"/><use xlink:href="#41" y="13.026"/><use xlink:href="#9" y="15.197"/><use xlink:href="#42" y="17.368"/><use xlink:href="#43" y="19.539"/><use xlink:href="#44" y="21.71"/><use xlink:href="#45" y="23.881"/><use xlink:href="#46" y="26.052"/><use xlink:href="#47" y="28.223"/><use xlink:href="#48" y="30.394"/><use xlink:href="#49" y="32.565"/><use xlink:href="#35" y="34.736"/><use xlink:href="#50" y="36.907"/><use xlink:href="#51" y="39.078"/><use xlink:href="#52" y="41.249"/><use xlink:href="#46" y="43.42"/><use xlink:href="#53" y="45.591"/><use xlink:href="#54" y="47.762"/><use xlink:href="#55" y="49.933"/><use xlink:href="#56" y="52.104"/><use xlink:href="#57" y="54.275"/><use xlink:href="#58" y="56.446"/><use xlink:href="#17" y="60.788"/><use xlink:href="#59" y="62.959"/><use xlink:href="#17" y="65.13"/><use xlink:href="#60" y="67.301"/><use xlink:href="#61" y="69.472"/><text y="75.484" class="f">---</text><text x="4.008" y="75.484" class="f">Step</text><text x="9.018" y="75.484" class="f">1:</text><text x="12.024" y="75.484" class="f">Supported</text><text x="22.044" y="75.484" class="f">Networks</text><text x="31.062" y="75.484" class="f">---</text></svg><svg x="1200"><use xlink:href="#a"/><use xlink:href="#b" x="-.004" y="75.96"/><use xlink:href="#36"/><use xlink:href="#62" y="2.171"/><text x="6.012" y="6.012" class="f">&quot;network&quot;:</text><text x="17.034" y="6.012" class="f">&quot;avalanche&quot;</text><use xlink:href="#37" y="6.513"/><use xlink:href="#36" y="8.684"/><use xlink:href="#62" y="10.855"/><use xlink:href="#63" y="13.026"/><use xlink:href="#37" y="15.197"/><use xlink:href="#36" y="17.368"/><use xlink:href="#62" y="19.539"/><use xlink:href="#64" y="21.71"/><use xlink:href="#37" y="23.881"/><use xlink:href="#36" y="26.052"/><use xlink:href="#62" y="28.223"/><use xlink:href="#65" y="30.394"/><use xlink:href="#37" y="32.565"/><use xlink:href="#36" y="34.736"/><use xlink:href="#62" y="36.907"/><use xlink:href="#66" y="39.078"/><use xlink:href="#37" y="41.249"/><use xlink:href="#67" y="43.42"/><use xlink:href="#17" y="47.762"/><use xlink:href="#68" y="49.933"/><use xlink:href="#17" y="52.104"/><use xlink:href="#69" y="54.275"/><use xlink:href="#70" y="56.446"/><use xlink:href="#71" y="58.617"/><use xlink:href="#72" y="60.788"/><use xlink:href="#35" y="62.959"/><use xlink:href="#73" y="65.13"/><use xlink:href="#14" y="67.301"/><use xlink:href="#74" y="71.643"/></svg><svg x="1300"><use xlink:href="#a"/><use xlink:href="#b" x="-.004" y="75.96"/><use xlink:href="#36"/><use xlink:href="#62" y="2.171"/><use xlink:href="#63" y="4.342"/><use xlink:href="#37" y="6.513"/><use xlink:href="#36" y="8.684"/><use xlink:href="#62" y="10.855"/><use xlink:href="#64" y="13.026"/><use xlink:href="#37" y="15.197"/><use xlink:href="#36" y="17.368"/><use xlink:href="#62" y="19.539"/><use xlink:href="#65" y="21.71"/><use xlink:href="#37" y="23.881"/><use xlink:href="#36" y="26.052"/><use xlink:href="#62" y="28.223"/><use xlink:href="#66" y="30.394"/><use xlink:href="#37" y="32.565"/><use xlink:href="#67" y="34.736"/><use xlink:href="#17" y="39.078"/><use xlink:href="#68" y="41.249"/><use xlink:href="#17" y="43.42"/><use xlink:href="#69" y="45.591"/><use xlink:href="#70" y="47.762"/><use xlink:href="#71" y="49.933"/><use xlink:href="#72" y="52.104"/><use xlink:href="#35" y="54.275"/><use xlink:href="#73" y="56.446"/><use xlink:href="#14" y="58.617"/><use xlink:href="#74" y="62.959"/><use xlink:href="#1" y="67.301"/><text y="71.142" class="f">║</text><text x="4.008" y="71.142" class="f">All</text><text x="8.016" y="71.142" class="f">6</text><text x="10.02" y="71.142" class="f">exercises</text><text x="20.04" y="71.142" class="f">completed</text><text x="30.06" y="71.142" class="f">successfully!</text><text x="49.098" y="71.142" class="f">║</text><text y="73.313" class="f">║</text><text x="4.008" y="73.313" class="f">github.com/PerkOS-xyz/ERC-8004-Workshop</text><text x="49.098" y="73.313" class="f">║</text><use xlink:href="#4" y="73.814"/></svg></svg></g></svg></svg>